<svg id="Layer_1" data-name="Layer 1" xmlns="http://www.w3.org/2000/svg" viewBox="0 0 612 792"><defs><style>.cls-1,.cls-2{fill:#a6e7ef;}.cls-1,.cls-3,.cls-4,.cls-5{fill-rule:evenodd;}.cls-2{opacity:0.99;}.cls-3{fill:#fff;}.cls-4{fill:#f6d2a2;}</style></defs><title>Artboard 8</title><path class="cls-1" d="M172.05,194.43c-63.84-31,1.54-107.54,49.2-62.65Z"/><path class="cls-1" d="M402.18,208.37c76.36-37.08-1.84-128.64-58.86-74.94Z"/><path class="cls-2" d="M148,334c-.1-47.95,4.19-91,19.66-132,17-45,45.67-78.9,96.49-83.91,70.1-6.91,128.06,28.47,144.21,103.81,5.4,25.16,6,50.69,5.62,76.29-.42,29.24.1,58.48,5.72,87.3,6.9,35.37,23.71,65.79,48.51,91.71,5,5.24,5.69,8,.71,14.19-17.26,21.31-38.71,30-65.36,23.49-23.13-5.66-43.52-1.34-60.87,14.73C321.28,549.49,297.14,552,272,539.9c-29.23-14-56.82-14.4-83.65,4.71-7.44,5.3-7.27-1.92-8.62-5.15a280,280,0,0,1-19.45-73.66C154.63,420.57,147.51,375.43,148,334Z"/><path class="cls-3" d="M283.27,225.57c9.46,55.59,99.42,40.89,86.5-15.17-11.59-50.27-89.65-36.35-86.5,15.17"/><path class="cls-3" d="M175.77,234.56c12.27,48.4,89,36,86.09-12.54-3.47-58.13-97.82-46.91-86.09,12.54"/><ellipse cx="196.93" cy="226.67" rx="12.95" ry="14.17"/><path class="cls-3" d="M205.87,229.87a3.09,3.09,0,1,1-3.05-3.6A3.35,3.35,0,0,1,205.87,229.87Z"/><ellipse cx="305.46" cy="223.14" rx="12.74" ry="14.17"/><path class="cls-3" d="M314.25,226.34c0,2-1.34,3.6-3,3.6s-3-1.61-3-3.6,1.34-3.6,3-3.6S314.25,224.35,314.25,226.34Z"/><path class="cls-3" d="M265.93,288.62c-11.6,37.71,40.07,32.38,23.19-.29Z"/><path class="cls-4" d="M259,264.85c-10.53.9-19.15,13.55-13.67,23.56,7.25,13.25,23.44-1.17,33.52.18,11.61.24,21.12,12.39,30.44,2.2,10.36-11.35-4.47-22.39-16.05-27.33Z"/><path class="cls-5" d="M257.71,264.29c-.78-18.43,34-20.73,38.12-5.31s-36.4,19-38.12,5.31Z"/></svg>