<svg id="Layer_1" data-name="Layer 1" xmlns="http://www.w3.org/2000/svg" viewBox="0 0 612 792"><defs><style>.cls-1,.cls-5{fill:#a6e7ef;}.cls-2{fill:#fff;}.cls-2,.cls-3,.cls-4,.cls-5{fill-rule:evenodd;}.cls-3{fill:#f6d2a2;}</style></defs><title>logo</title><path d="M286.56,203.7a176.61,176.61,0,1,1-.32,353.21c-100.88-.12-179-83.57-176.27-181.65C112.49,283,188,203.81,286.56,203.7Z"/><path class="cls-1" d="M362.34,401.31c-7.17,20.36-31.61,47.32-46.5,54.25-13.67,7-29.06,10.94-42.75,8-8.67-1.87-14.17-8.9-15.08-12s-1.66-6.11-6.92-7c-6.65-1.14-15.88.87-22.5,1.25-3.93.23-18.26-.33-21.64-6.76-2-3.92-3.79-8-6-11.82-3.66-6.29-7.61-7.79-14.74-6.48-7.41,1.37-13,2.66-20.61-3.44-5.31-4.24-7.5-7.75-2.45-12.68,3.26-3.18,39.33-2.44,59-13.86,21.56-12.5,27.92-18.95,33.42-49.67,0-.5,8.58-30.18,22.25-39.52,15.85-10.82,33.71-12.9,51.93-7,26.5,10.51,34.39,25.35,39.82,47.51C372.2,358,368.59,383.56,362.34,401.31Z"/><path class="cls-1" d="M408.87,313c1.41.14,1.94,1.23,2.34,2.32a11.33,11.33,0,0,0,6.85,6.91c1.08.43,2.32,1,2.38,2.32.07,1.53-1.29,2.19-2.48,2.65A12,12,0,0,0,411,334c-1.33,3-3.17,3.13-4.48.3a13.85,13.85,0,0,0-7.7-7.64c-2.23-.89-2.58-3-.28-4,4-1.8,7-4.29,8.41-8.5C407.26,313.32,408.09,313.11,408.87,313Z"/><path class="cls-1" d="M205.34,334.31a2.07,2.07,0,0,1,2.29,1.47,12.18,12.18,0,0,0,6.52,6.8c2.88,1.28,2.57,3.18-.16,4.28a11.39,11.39,0,0,0-6.32,6.42c-1.2,2.66-3.08,2.37-4.09-.13a10.89,10.89,0,0,0-6.59-6.62c-1.87-.69-2.6-2.46-.66-3.42,3.66-1.82,6.43-4.21,8-8C204.47,334.7,205.09,334.49,205.34,334.31Z"/><path class="cls-1" d="M359,460.22c.44.17,1,.2,1.11.45a13,13,0,0,0,6.05,6.26c1.17.58.5,1.92-.6,2.4a9.76,9.76,0,0,0-5.07,5.1c-.8,1.66-2.24,1.3-2.88-.22a9.36,9.36,0,0,0-5.11-5,1.43,1.43,0,0,1-.07-2.73,9.85,9.85,0,0,0,5.4-5.28C358,460.78,358.56,460.54,359,460.22Z"/><path class="cls-1" d="M172.6,369.45a5.08,5.08,0,0,1,0-2.23,3.38,3.38,0,0,1,3.66-3c2.62,0,4.22,1.33,4.31,3.9a3.74,3.74,0,0,1-4,4.18A3.57,3.57,0,0,1,172.6,369.45Z"/><path class="cls-1" d="M341.52,481.06c-.12,1.89-1,3-2.92,3a2.62,2.62,0,0,1-2.85-3,2.53,2.53,0,0,1,2.68-2.7C340.36,478.28,341.27,479.31,341.52,481.06Z"/><path class="cls-2" d="M321.28,364.21c-.63,2.86-4,10.56,2.57,13.14,7,1.45,8-7.34,8.62-10.84Z"/><path class="cls-2" d="M360.82,341.52c-4.26,15.86-29.68,11.49-28.54-4.45,1.37-19.1,32.66-15.05,28.54,4.45"/><ellipse cx="353.82" cy="338.84" rx="4.66" ry="4.3" transform="matrix(0.01, -1, 1, 0.01, 10.96, 688.77)"/><path class="cls-2" d="M350.84,339.86a1,1,0,1,0,2,0,1,1,0,1,0-2,0Z"/><path class="cls-2" d="M321.75,337c-3.63,19.75-35.92,14.15-31.05-5.76,4.38-17.85,32.39-12.58,31.05,5.76"/><ellipse cx="312.66" cy="338.2" rx="5.74" ry="5.21" transform="translate(-29.1 646.98) rotate(-89.35)"/><path class="cls-2" d="M309,339.46a1.25,1.25,0,1,0,1.25-1.45A1.36,1.36,0,0,0,309,339.46Z"/><path class="cls-3" d="M334.73,356.67c4.24.83,7.19,6.3,4.53,10.09-3.52,5-9.48-1.5-13.64-1.4-4.73-.41-9.12,4.07-12.47-.45-3.72-5,2.79-8.81,7.71-10.29Z"/><path class="cls-4" d="M335.29,356.51c1.12-7.39-12.93-9.84-15.27-3.81s14,9.23,15.27,3.81Z"/><path class="cls-5" d="M269.76,320.26c-30.67-16.06,8.27-50,21.94-22.7C293,300.1,269.76,320.26,269.76,320.26Z"/><path class="cls-1" d="M340.27,305.9c8.34-30.34,52.54,7.91,20.92,18.74C357.71,325.84,340.27,305.9,340.27,305.9Z"/></svg>